<?xml version="1.0" standalone="no"?>
<!DOCTYPE svg PUBLIC "-//W3C//DTD SVG 20010904//EN"
 "http://www.w3.org/TR/2001/REC-SVG-20010904/DTD/svg10.dtd">
<svg version="1.0" xmlns="http://www.w3.org/2000/svg"
 width="1280.000000pt" height="1008.000000pt" viewBox="0 0 1280.000000 1008.000000"
 preserveAspectRatio="xMidYMid meet">
<metadata>
Created by potrace 1.15, written by Peter Selinger 2001-2017
</metadata>
<g transform="translate(0.000000,1008.000000) scale(0.100000,-0.100000)"
fill="#ffffff" stroke="none">
<path d="M2204 9678 c10 -601 21 -734 101 -1213 112 -672 202 -961 414 -1329
28 -49 51 -93 51 -98 0 -5 -27 -45 -60 -88 -175 -229 -334 -519 -408 -740 -41
-124 -72 -270 -72 -337 0 -33 -1 -35 -27 -28 -177 45 -362 68 -553 68 -418 0
-1010 -99 -1225 -206 -51 -25 -49 -22 -35 -46 11 -21 11 -21 48 -2 234 118
1003 234 1350 202 132 -12 245 -30 370 -58 l73 -17 -3 -50 -3 -51 -105 -47
c-58 -26 -177 -70 -265 -98 -214 -68 -316 -106 -398 -147 -59 -29 -67 -36 -56
-49 24 -29 144 -82 291 -128 144 -46 208 -80 208 -112 0 -30 -137 -78 -268
-94 -435 -53 -825 -180 -1119 -363 -83 -52 -94 -65 -70 -85 9 -8 31 1 82 35
196 128 506 248 807 312 107 23 131 26 111 13 -14 -9 125 -92 357 -216 149
-80 163 -89 158 -112 -2 -13 -24 -21 -88 -34 -82 -17 -179 -47 -214 -67 -14
-8 12 -34 150 -149 l167 -139 -34 -6 c-19 -4 -90 -12 -159 -19 -210 -19 -417
-50 -536 -80 -397 -103 -852 -299 -1151 -498 -72 -47 -81 -57 -72 -73 5 -10
13 -19 16 -19 4 0 44 25 89 55 345 229 943 467 1321 525 146 22 494 60 553 59
22 0 46 -9 65 -24 l29 -24 -29 -11 c-17 -6 -78 -19 -137 -28 -60 -8 -108 -18
-108 -21 0 -12 178 -200 256 -271 45 -41 82 -78 83 -81 1 -3 -61 -32 -136 -64
-194 -82 -420 -197 -526 -268 -159 -107 -324 -284 -286 -308 24 -15 33 -10 62
35 15 24 58 73 96 108 145 137 354 254 747 418 l91 38 269 -244 c148 -135 270
-248 272 -252 1 -4 -64 -40 -144 -80 -331 -165 -414 -230 -744 -582 -213 -228
-197 -207 -176 -228 16 -16 19 -15 53 23 107 118 378 399 443 458 104 95 224
172 437 279 l181 92 84 -76 c369 -332 705 -577 973 -708 219 -107 380 -154
800 -235 132 -25 333 -63 446 -85 113 -22 322 -69 465 -106 710 -180 858 -184
1271 -29 178 67 282 96 828 229 580 142 766 191 943 253 221 78 578 344 1090
815 l163 150 112 -32 c206 -59 291 -92 467 -180 291 -147 417 -242 639 -482
266 -287 271 -291 286 -278 8 7 15 16 15 21 0 15 -388 424 -473 499 -198 174
-523 347 -817 435 -85 26 -162 49 -170 52 -14 5 89 109 258 260 l63 56 102
-43 c156 -66 370 -176 466 -240 107 -72 207 -163 252 -229 19 -28 37 -51 40
-51 3 0 13 6 23 13 16 12 14 17 -26 72 -122 166 -299 280 -766 496 l-52 24
171 160 171 160 -58 12 c-33 7 -82 17 -110 23 -28 6 -60 17 -70 25 -18 14 -15
18 47 80 65 63 68 65 110 60 366 -43 457 -61 719 -147 351 -114 659 -257 901
-419 80 -54 86 -56 97 -38 7 10 12 20 12 23 0 5 -176 118 -255 164 -247 140
-588 279 -917 372 -121 34 -260 60 -475 87 l-63 8 113 88 c131 102 171 136
165 142 -6 6 -107 30 -212 49 -76 15 -126 37 -126 56 0 24 69 66 225 136 190
86 264 125 290 154 17 18 16 20 -16 39 -37 23 -192 81 -214 81 -8 0 -16 4 -19
9 -6 8 6 10 217 36 360 44 660 23 1022 -70 254 -66 507 -171 677 -280 70 -46
95 -50 105 -19 3 9 -109 82 -219 142 -140 77 -361 158 -573 211 -420 105 -720
115 -1213 39 -135 -20 -144 -21 -177 -5 -40 19 -53 41 -36 61 7 8 58 28 114
46 239 74 367 130 367 159 0 15 -60 57 -115 81 -84 36 -344 126 -460 160 -166
48 -223 70 -258 103 -25 23 -28 30 -17 37 24 13 226 58 365 82 291 49 831 12
1240 -87 101 -24 258 -76 306 -101 24 -12 27 -11 37 10 10 22 7 25 -46 49
-254 111 -788 200 -1212 200 -212 1 -340 -15 -589 -74 -68 -16 -125 -28 -127
-27 -1 2 -10 46 -19 98 -57 334 -196 690 -399 1023 -36 60 -66 113 -66 118 0
5 19 39 42 76 72 119 192 374 235 503 82 243 147 543 222 1020 45 291 61 475
66 785 3 154 7 367 10 473 l4 193 -57 -6 c-541 -62 -912 -152 -1367 -332 -307
-122 -487 -222 -694 -389 -160 -129 -413 -395 -582 -613 -58 -75 -63 -79 -88
-70 -115 44 -521 124 -761 150 -148 16 -603 17 -745 1 -255 -29 -527 -81 -725
-140 -52 -16 -130 -39 -173 -52 l-78 -23 -16 23 c-100 142 -327 402 -490 560
-219 213 -435 364 -671 470 -400 178 -851 312 -1267 375 -83 12 -338 45 -354
45 -2 0 -1 -181 3 -402z"/>
</g>
</svg>
